<svg width="22" height="19" viewBox="0 0 22 19" fill="none" xmlns="http://www.w3.org/2000/svg">
<path fill-rule="evenodd" clip-rule="evenodd" d="M8.95757 1.11759C8.29965 1.11759 7.69815 1.47627 7.40388 2.04435L6.1472 4.47055H2.89468C1.93534 4.47055 1.15783 5.22123 1.15783 6.14703V16.2059C1.15783 17.1317 1.93534 17.8824 2.89468 17.8824H19.1049C20.0643 17.8824 20.8418 17.1317 20.8418 16.2059V6.14703C20.8418 5.22123 20.0643 4.47055 19.1049 4.47055H15.8524L14.5957 2.04435C14.3015 1.47631 13.7 1.11759 13.042 1.11759H8.95757ZM6.36837 1.54457C6.85861 0.597786 7.86097 0 8.95757 0H13.0422C14.1388 0 15.1412 0.597786 15.6314 1.54457L16.5683 3.35296H19.1051C20.704 3.35296 22 4.60395 22 6.14704V16.2059C22 17.749 20.704 19 19.1051 19H2.89488C1.29604 19 0 17.749 0 16.2059V6.14704C0 4.60395 1.29604 3.35296 2.89488 3.35296H5.43172L6.36837 1.54457Z" fill="#868686"/>
<path fill-rule="evenodd" clip-rule="evenodd" d="M10.9998 6.88429C8.81902 6.88429 7.05099 8.6102 7.05099 10.7392C7.05099 12.8684 8.81902 14.5944 10.9998 14.5944C13.1805 14.5944 14.9486 12.8685 14.9486 10.7392C14.9486 8.6102 13.1805 6.88429 10.9998 6.88429ZM5.92285 10.7392C5.92285 8.00192 8.19596 5.78271 10.9998 5.78271C13.8038 5.78271 16.0767 8.00192 16.0767 10.7392C16.0767 13.4767 13.8038 15.6958 10.9998 15.6958C8.19596 15.6958 5.92285 13.4767 5.92285 10.7392Z" fill="#868686"/>
</svg>
