<svg width="16" height="22" viewBox="0 0 16 22" fill="none" xmlns="http://www.w3.org/2000/svg">
<path d="M8.00103 9.83732e-05C7.50667 9.83732e-05 7.10627 0.409408 7.10627 0.914019V15.0811L1.5313 9.35932C1.18175 9.00229 0.614641 9.00229 0.265092 9.35932C-0.0844576 9.71667 -0.0844576 10.2956 0.265092 10.6526L7.37033 17.91C7.41183 17.9517 7.45678 17.9897 7.50453 18.0241H7.54042L7.65683 18.0882H7.71051H7.7102C7.74765 18.1038 7.78666 18.1143 7.82661 18.1201C7.88466 18.1271 7.94302 18.1271 8.00107 18.1201C8.06068 18.1271 8.12061 18.1271 8.17991 18.1201C8.21829 18.1137 8.25574 18.1032 8.29194 18.0882H8.34563L8.46204 18.0241H8.49793L8.6365 17.91L15.737 10.6526C16.0866 10.2956 16.0866 9.71668 15.737 9.35932C15.3875 9.00229 14.8204 9.00229 14.4708 9.35932L8.89585 15.0581V0.913938C8.89585 0.671662 8.80159 0.439277 8.63369 0.267771C8.46609 0.0962644 8.23826 0 8.00106 0L8.00103 9.83732e-05Z" fill="#868686"/>
<path d="M0.894766 22H15.1052C15.5993 22 16 21.5907 16 21.0861C16 20.5812 15.5993 20.1719 15.1052 20.1719H0.894766C0.400716 20.1719 0 20.5812 0 21.0861C0 21.5908 0.400731 22 0.894766 22Z" fill="#868686"/>
</svg>
