<svg width="19" height="19" viewBox="0 0 19 19" fill="none" xmlns="http://www.w3.org/2000/svg">
<path d="M9.50068 7.55688C9.02574 7.55688 8.63711 7.94551 8.63711 8.42046L8.63711 13.3864C8.63711 13.8614 9.02574 14.25 9.50068 14.25C9.97563 14.25 10.3643 13.8614 10.3643 13.3864L10.3643 8.42046C10.3643 7.94551 9.97563 7.55688 9.50068 7.55688Z" fill="#868686"/>
<path d="M8.42092 5.54884C8.42092 4.9526 8.90426 4.46926 9.5005 4.46926C10.0967 4.46926 10.5801 4.9526 10.5801 5.54884C10.5801 6.14507 10.0967 6.62842 9.5005 6.62842C8.90426 6.62842 8.42092 6.14507 8.42092 5.54884Z" fill="#868686"/>
<circle cx="9.5" cy="9.5" r="8.9" transform="rotate(180 9.5 9.5)" stroke="#868686" stroke-width="1.2"/>
</svg>
