<svg width="17" height="22" viewBox="0 0 17 22" fill="none" xmlns="http://www.w3.org/2000/svg">
<path d="M13.5997 7.21977C14.5375 7.22187 15.4289 6.80603 16.0377 6.08233C16.6468 5.35845 16.9116 4.39993 16.7624 3.4603C16.6132 2.52088 16.0646 1.69528 15.2625 1.20242C14.4603 0.709507 13.4852 0.598903 12.5957 0.900079C11.706 1.20127 10.9917 1.8836 10.6417 2.76658C10.2919 3.64956 10.3417 4.64372 10.7782 5.48607L5.46411 8.70189C4.84266 8.16284 4.04114 7.88645 3.22475 7.92976C2.40837 7.97287 1.63957 8.33244 1.07674 8.93404C0.51395 9.53565 0.200195 10.3336 0.200195 11.1631C0.200195 11.9925 0.513926 12.7904 1.07674 13.392C1.63952 13.9937 2.40837 14.3533 3.22475 14.3963C4.04114 14.4396 4.84266 14.1632 5.46411 13.6242L10.6545 16.7307C10.2432 17.7112 10.3303 18.8337 10.8876 19.7369C11.4448 20.6401 12.402 21.2099 13.4507 21.2627C14.4996 21.3155 15.5075 20.845 16.1504 20.0023C16.7931 19.1597 16.9894 18.0515 16.676 17.0344C16.3627 16.0173 15.5794 15.22 14.578 14.899C13.5766 14.578 12.4839 14.7739 11.6516 15.4235L6.39141 12.2651C6.6525 11.5515 6.6525 10.7664 6.39141 10.0528L11.9023 6.71659C12.4097 7.04448 12.9986 7.21902 13.6001 7.2198L13.5997 7.21977Z" fill="#868686"/>
</svg>
