<svg width="21" height="21" viewBox="0 0 21 21" fill="none" xmlns="http://www.w3.org/2000/svg">
<path d="M8.77407 15.1643L8.76457 15.9354L8.76457 15.9354C8.76268 16.0805 8.70137 16.2187 8.59456 16.3164C8.59454 16.3164 8.59452 16.3165 8.5945 16.3165L8.52702 16.2427C8.4408 16.3217 8.32696 16.3609 8.21061 16.3497L8.77407 15.1643ZM8.77407 15.1643L9.28405 15.2763L9.28415 15.2763C9.45627 15.3139 9.63496 15.2599 9.75855 15.1345L9.75861 15.1344L11.8443 13.0141C14.0921 13.8523 16.5932 13.3004 18.3026 11.5627L18.2313 11.4926L18.3026 11.5627C20.6991 9.12646 20.6991 5.16362 18.3026 2.72753L18.2313 2.79766L18.3026 2.72752C15.9048 0.290829 12.0035 0.290822 9.60603 2.72753L9.67732 2.79766L9.60603 2.72753C7.89597 4.46566 7.35412 7.0077 8.17936 9.29061L1.05051 16.5366L1.05045 16.5367C0.953947 16.635 0.9 16.7678 0.9 16.9058V19.5771C0.9 19.7251 0.961875 19.8661 1.07029 19.9654L1.07041 19.9655C1.11205 20.0035 1.15906 20.034 1.20942 20.0562L1.16268 20.1H1.4157C1.43432 20.1 1.45262 20.0989 1.47054 20.097L1.47089 20.097L5.10333 19.7014M8.77407 15.1643L5.10333 19.7014M7.21547 17.5079C7.36003 17.5061 7.49672 17.443 7.59292 17.3345L7.51809 17.2682C7.59566 17.1807 7.63375 17.064 7.62314 16.9466L7.72274 16.9376L7.72274 16.9376L7.67425 16.4L8.20102 16.4493C8.20105 16.4493 8.20108 16.4493 8.20112 16.4493L6.43686 17.418L6.45805 17.5178M7.21547 17.5079L7.21424 17.4079L7.21555 17.5079L7.21547 17.5079ZM7.21547 17.5079L6.45805 17.5178M6.45805 17.5178L6.3561 17.5191L5.10341 19.7014M6.45805 17.5178L6.56876 18.039L6.56877 18.039C6.60536 18.2117 6.55344 18.3923 6.42982 18.5181L6.42977 18.5181L5.41359 19.5509C5.33046 19.6354 5.22098 19.6887 5.10341 19.7014M5.10341 19.7014L5.10333 19.7014M5.10341 19.7014L5.10333 19.7014M5.41709 16.6779L5.41714 16.6778C5.51346 16.555 5.65923 16.4823 5.81464 16.4801L5.81472 16.4801L6.64449 16.4695L6.5903 15.8692C6.5903 15.8692 6.5903 15.8692 6.5903 15.8692C6.57638 15.7151 6.63066 15.5625 6.73868 15.4525L6.73873 15.4524C6.8468 15.3426 6.99762 15.2868 7.15133 15.3009L7.1515 15.3009L7.73998 15.3559L7.75049 14.511L7.75049 14.511L7.85048 14.5122C7.85202 14.3853 7.90963 14.266 8.00729 14.1869L5.41709 16.6779ZM5.41709 16.6779C5.32108 16.8005 5.28433 16.9602 5.31682 17.1128C5.31682 17.1128 5.31683 17.1129 5.31683 17.1129L5.50124 17.9807L4.81185 18.6812L1.93188 18.995V17.1219L9.14989 9.7858C9.29922 9.63403 9.34161 9.40576 9.25824 9.20973C8.41975 7.23815 8.84354 4.98401 10.3373 3.46574C12.3324 1.43808 15.5777 1.43837 17.5722 3.46573C19.5675 5.49419 19.5677 8.79601 17.5722 10.8243L17.6435 10.8944L17.5722 10.8243C16.079 12.3424 13.8626 12.772 11.9251 11.9207L11.9251 11.9207C11.7304 11.8352 11.504 11.8796 11.3546 12.0311L11.3545 12.0312L9.22725 14.1935L5.41709 16.6779ZM13.558 7.546L13.558 7.54601C13.9745 7.96919 14.5218 8.18109 15.0688 8.18109C15.6148 8.18109 16.1609 7.96977 16.576 7.54785C16.9783 7.13905 17.1994 6.59447 17.1988 6.01575C17.198 5.43764 16.9764 4.89356 16.5742 4.48473C15.7417 3.63857 14.3873 3.6375 13.556 4.48275C12.7254 5.32722 12.7266 6.70074 13.558 7.546ZM14.2888 6.80764L14.2887 6.80763C13.8579 6.3698 13.8573 5.65756 14.2868 5.22088C14.7153 4.78529 15.4131 4.78565 15.8434 5.22268C16.0515 5.43456 16.1665 5.71609 16.1669 6.01688C16.1672 6.31751 16.0529 6.59859 15.8453 6.80962L15.8453 6.80963C15.4167 7.24537 14.7188 7.24473 14.2888 6.80764Z" fill="#BFBFBF" stroke="#868686" stroke-width="0.2"/>
</svg>
