<svg xmlns="http://www.w3.org/2000/svg" width="19" height="19" viewBox="0 0 19 19" fill="none">
<rect x="0.6" y="0.6" width="17.8" height="17.8" rx="3.4" fill="#BFBFBF" stroke="#BFBFBF" stroke-width="1.2"/>
<path d="M15 5.02848C15 5.23292 14.8295 5.39866 14.6193 5.39866C14.409 5.39866 14.2385 5.56438 14.2385 5.7688V7.37294C14.2385 9.923 12.102 12 9.4789 12C6.8558 11.9999 4.74046 9.94338 4.74046 7.39314V5.77878C4.74046 5.58001 4.57469 5.41889 4.37023 5.41893C4.16577 5.41897 4 5.25785 4 5.05908V4.70943C4 4.31762 4.32672 4 4.72975 4H6.23163C6.6347 4 6.96145 4.31765 6.96145 4.7095V5.04884C6.96145 5.25327 6.79098 5.419 6.58068 5.419C6.37039 5.419 6.19992 5.58473 6.19992 5.78916V7.39329C6.19992 9.16185 7.68064 10.6013 9.49987 10.6013C11.3191 10.6013 12.7998 9.16185 12.7998 7.39329V5.78909C12.7998 5.5847 12.6294 5.419 12.4191 5.419C12.2089 5.419 12.0384 5.25331 12.0384 5.04891V4.7095C12.0384 4.31765 12.3652 4 12.7683 4H14.2806C14.6779 4 14.9999 4.31306 15 4.69926L15 5.02848Z" fill="#ffffff"/>
</svg>
