<svg width="20" height="22" viewBox="0 0 20 22" fill="none" xmlns="http://www.w3.org/2000/svg">
<path d="M18.4903 2.13049H11.9046V1.92211C11.9046 0.856761 11.0556 0 10 0C8.94441 0 8.09542 0.856803 8.09542 1.92211V2.13049H1.5097C0.958935 2.13049 0.5 2.59361 0.5 3.14948C0.5 3.70536 0.958894 4.16848 1.5097 4.16848H18.4903C19.0411 4.16848 19.5 3.70536 19.5 3.14948C19.5 2.59361 19.0411 2.13049 18.4903 2.13049Z" fill="#F12A5C"/>
<path d="M17.7563 5.55762H2.24429C2.03781 5.55762 1.8771 5.7429 1.90015 5.95128L3.66709 20.1934C3.80475 21.2124 4.65372 21.9997 5.68645 21.9997H14.3144C15.347 21.9997 16.1961 21.2355 16.3338 20.1934L18.1007 5.95128C18.1235 5.7429 17.9629 5.55762 17.7564 5.55762H17.7563Z" fill="#F12A5C"/>
</svg>
