<svg width="19" height="18" viewBox="0 0 19 18" fill="none" xmlns="http://www.w3.org/2000/svg">
<path d="M17.4367 3.36809H14.3224V1.64928C14.3224 0.739893 13.6211 0 12.7591 0H6.2409C5.37892 0 4.67761 0.739893 4.67761 1.64928V3.36783H1.56329C0.701316 3.36783 0 4.10773 0 5.01711V16.3507C0 17.2601 0.701316 18 1.56329 18H17.4367C18.2987 18 19 17.2601 19 16.3507V5.01737C19 4.10798 18.2987 3.36809 17.4367 3.36809ZM5.88014 1.64928C5.88014 1.43944 6.042 1.26868 6.2409 1.26868H12.7591C12.958 1.26868 13.1199 1.43944 13.1199 1.64928V3.36783H5.88014V1.64928ZM17.7975 16.3507C17.7975 16.5606 17.6356 16.7313 17.4367 16.7313H1.56329C1.36439 16.7313 1.20253 16.5606 1.20253 16.3507V5.01737C1.20253 4.80753 1.36439 4.63676 1.56329 4.63676H17.4367C17.6356 4.63676 17.7975 4.80753 17.7975 5.01737V16.3507Z" fill="#7F7DF3"/>
</svg>
