<svg width="32" height="32" viewBox="0 0 32 32" fill="none" xmlns="http://www.w3.org/2000/svg">
<path d="M16 0C24.8306 0 32 7.16941 32 16C32 24.8306 24.8306 32 16 32C7.16941 32 0 24.8306 0 16C0 7.16941 7.16941 0 16 0ZM6.77017 27.1465C8.67992 23.8945 12.1828 21.86 16 21.86C19.8172 21.86 23.3201 23.8945 25.2298 27.1465C28.4314 24.4925 30.4704 20.4864 30.4704 16C30.4704 8.00459 23.9954 1.52964 16 1.52964C8.00459 1.52964 1.52964 8.00459 1.52964 16C1.52964 20.4864 3.56864 24.4925 6.77017 27.1465ZM23.9969 28.0627C22.3778 25.187 19.3323 23.3897 16 23.3897C12.6677 23.3897 9.62218 25.187 8.00306 28.0627C10.2937 29.5839 13.0424 30.4704 16 30.4704C18.9576 30.4704 21.7063 29.5839 23.9969 28.0627Z" fill="#868686"/>
<path d="M15.9996 6.53809C19.6639 6.53809 22.6359 9.51017 22.6359 13.1744C22.6359 16.8371 19.6631 19.8115 15.9996 19.8115C12.3346 19.8115 9.36328 16.8387 9.36328 13.1744C9.36328 9.51246 12.3369 6.53809 15.9996 6.53809ZM15.9996 8.06772C13.1774 8.06772 10.8929 10.3522 10.8929 13.1744C10.8929 15.9989 13.1751 18.2819 15.9996 18.2819C18.8218 18.2819 21.1063 15.9966 21.1063 13.1744C21.1063 10.3499 18.8233 8.06772 15.9996 8.06772Z" fill="#868686"/>
</svg>
