<svg width="19" height="20" viewBox="0 0 19 20" fill="none" xmlns="http://www.w3.org/2000/svg">
<path d="M9.5 0.5C4.26165 0.5 0 4.76165 0 10C0 15.2384 4.26165 19.5 9.5 19.5C14.7384 19.5 19 15.2384 19 10C19 4.76165 14.7384 0.5 9.5 0.5ZM9.5 18.3124C4.91642 18.3124 1.18761 14.5834 1.18761 9.99978C1.18761 5.4162 4.91642 1.68761 9.5 1.68761C14.0836 1.68761 17.8124 5.41642 17.8124 10C17.8124 14.5836 14.0836 18.3124 9.5 18.3124ZM12.2857 8.0179C12.2857 9.78686 11.3929 10.3012 10.741 10.6768C10.1772 11.0016 9.83684 11.1978 9.83684 12.1774C9.83684 12.5054 9.57097 12.7712 9.24303 12.7712C8.9151 12.7712 8.64923 12.5054 8.64923 12.1774C8.64923 10.5115 9.51535 10.0122 10.1479 9.64781C10.7199 9.31809 11.0979 9.1005 11.0979 8.01768C11.0979 7.13643 10.3808 6.41937 9.49956 6.41937C8.6183 6.41937 7.90124 7.13643 7.90124 8.01768C7.90124 8.34562 7.63538 8.61149 7.30744 8.61149C6.9795 8.61149 6.71363 8.34562 6.71363 8.01768C6.71363 6.48166 7.96332 5.23198 9.49933 5.23198C11.036 5.2322 12.2857 6.48189 12.2857 8.0179ZM9.79946 13.9515V14.1742C9.79946 14.5022 9.5336 14.768 9.20566 14.768C8.87772 14.768 8.61185 14.5022 8.61185 14.1742V13.9515C8.61185 13.6236 8.87772 13.3577 9.20566 13.3577C9.5336 13.3577 9.79946 13.6236 9.79946 13.9515Z" fill="#BFBFBF"/>
</svg>
