<svg width="19" height="14" viewBox="0 0 19 14" fill="none" xmlns="http://www.w3.org/2000/svg">
<path d="M2.20192 9.01335C1.69397 9.01163 1.20116 9.18972 0.807528 9.51725C0.413897 9.84478 0.143823 10.3015 0.0433571 10.8094C-0.0571084 11.3174 0.0182569 11.8452 0.256601 12.3028C0.494946 12.7604 0.88151 13.1195 1.35038 13.3189C1.81924 13.5182 2.34138 13.5455 2.82774 13.396C3.31411 13.2465 3.73458 12.9295 4.01747 12.4991C4.30036 12.0687 4.42815 11.5516 4.37904 11.0358C4.32993 10.52 4.10696 10.0376 3.74816 9.67077L6.25805 4.80623C6.7791 5.03471 7.36718 5.04567 7.89606 4.83676L10.3501 9.82139C10.0924 10.1344 9.92371 10.5135 9.8622 10.9174C9.80069 11.3213 9.84874 11.7347 10.0011 12.1127C10.1535 12.4907 10.4045 12.819 10.7268 13.0619C11.049 13.3048 11.4303 13.453 11.8293 13.4905C12.2283 13.5281 12.6297 13.4535 12.9901 13.2748C13.3505 13.0961 13.656 12.8202 13.8736 12.477C14.0912 12.1338 14.2126 11.7364 14.2245 11.3278C14.2365 10.9192 14.1385 10.5151 13.9413 10.1593L16.5231 4.96498C17.0483 5.03448 17.5805 4.90785 18.0214 4.60845C18.4623 4.30906 18.7822 3.8571 18.9221 3.33595C19.062 2.8148 19.0124 2.25962 18.7825 1.77285C18.5526 1.28607 18.1579 0.900533 17.6712 0.68736C17.1845 0.474187 16.6387 0.447762 16.1344 0.612959C15.6301 0.778156 15.2014 1.12383 14.9273 1.58621C14.6533 2.04859 14.5524 2.59648 14.6432 3.1288C14.7341 3.66112 15.0106 4.14195 15.4217 4.4826L13.0435 9.26777C12.7853 9.12939 12.5024 9.04562 12.2116 9.02149C11.9209 8.99736 11.6284 9.03336 11.3517 9.12733L8.8677 4.08774C9.11131 3.75847 9.26102 3.36694 9.30029 2.95635C9.33957 2.54577 9.26688 2.1321 9.09025 1.761C8.91363 1.3899 8.63993 1.07579 8.29937 0.853353C7.95881 0.630914 7.56463 0.508789 7.16034 0.500457C6.75604 0.492125 6.35735 0.597909 6.00826 0.806135C5.65917 1.01436 5.37327 1.31693 5.18209 1.68045C4.99092 2.04397 4.90191 2.45431 4.9249 2.86618C4.94789 3.27805 5.08197 3.67543 5.31235 4.01446L2.7027 9.07644C2.53874 9.03568 2.37068 9.0145 2.20192 9.01335ZM16.8024 1.74706C16.9997 1.74706 17.1926 1.80674 17.3566 1.91857C17.5207 2.03039 17.6485 2.18933 17.724 2.37529C17.7995 2.56125 17.8193 2.76587 17.7808 2.96328C17.7423 3.1607 17.6473 3.34203 17.5078 3.48436C17.3683 3.62668 17.1905 3.72361 16.997 3.76288C16.8035 3.80214 16.6029 3.78199 16.4206 3.70496C16.2383 3.62794 16.0825 3.4975 15.9729 3.33014C15.8633 3.16278 15.8048 2.96602 15.8048 2.76474C15.8048 2.49484 15.9099 2.23598 16.097 2.04513C16.2841 1.85428 16.5378 1.74706 16.8024 1.74706ZM2.20192 12.2537C2.00462 12.2537 1.81175 12.194 1.6477 12.0822C1.48365 11.9703 1.35579 11.8114 1.28029 11.6254C1.20478 11.4395 1.18503 11.2348 1.22352 11.0374C1.26201 10.84 1.35702 10.6587 1.49653 10.5164C1.63605 10.374 1.8138 10.2771 2.00731 10.2378C2.20082 10.1986 2.4014 10.2187 2.58368 10.2958C2.76596 10.3728 2.92176 10.5032 3.03137 10.6706C3.14099 10.8379 3.1995 11.0347 3.1995 11.236C3.1995 11.5059 3.09439 11.7647 2.90731 11.9556C2.72023 12.1464 2.4665 12.2537 2.20192 12.2537ZM13.0236 11.236C13.0236 11.4373 12.9651 11.634 12.8555 11.8014C12.7458 11.9687 12.59 12.0992 12.4078 12.1762C12.2255 12.2532 12.0249 12.2734 11.8314 12.2341C11.6379 12.1948 11.4601 12.0979 11.3206 11.9556C11.1811 11.8133 11.0861 11.6319 11.0476 11.4345C11.0091 11.2371 11.0289 11.0325 11.1044 10.8465C11.1799 10.6606 11.3077 10.5016 11.4718 10.3898C11.6358 10.278 11.8287 10.2183 12.026 10.2183C12.1577 10.2183 12.2881 10.2449 12.4096 10.2965C12.5312 10.3482 12.6415 10.4239 12.7342 10.5192C12.827 10.6146 12.9003 10.7278 12.9499 10.8522C12.9996 10.9766 13.0246 11.1098 13.0236 11.2441V11.236ZM7.11796 1.74706C7.31526 1.74706 7.50813 1.80674 7.67218 1.91857C7.83623 2.03039 7.96409 2.18933 8.03959 2.37529C8.1151 2.56125 8.13485 2.76587 8.09636 2.96328C8.05787 3.1607 7.96286 3.34203 7.82335 3.48436C7.68383 3.62668 7.50608 3.72361 7.31257 3.76288C7.11906 3.80214 6.91849 3.78199 6.7362 3.70496C6.55392 3.62794 6.39812 3.4975 6.28851 3.33014C6.17889 3.16278 6.12039 2.96602 6.12039 2.76474C6.12039 2.49484 6.22549 2.23598 6.41257 2.04513C6.59965 1.85428 6.85338 1.74706 7.11796 1.74706Z" fill="#BFBFBF"/>
</svg>
