<svg width="21" height="20" viewBox="0 0 21 20" fill="none" xmlns="http://www.w3.org/2000/svg">
<path d="M8.77407 14.6643L8.76457 15.4354L8.76457 15.4354C8.76268 15.5805 8.70137 15.7187 8.59456 15.8164L8.77407 14.6643ZM8.77407 14.6643L9.28405 14.7763L9.28415 14.7763C9.45627 14.8139 9.63496 14.7599 9.75855 14.6345L9.75861 14.6344L11.8443 12.5141C14.0921 13.3523 16.5932 12.8004 18.3026 11.0627L18.2393 11.0005L18.3026 11.0627C20.6991 8.62646 20.6991 4.66362 18.3026 2.22753L18.2315 2.29744L18.3026 2.22752C15.9048 -0.209171 12.0035 -0.209178 9.60603 2.22753C7.89597 3.96566 7.35412 6.5077 8.17936 8.79061L1.05051 16.0366L1.05045 16.0367C0.953947 16.135 0.9 16.2678 0.9 16.4058V19.0771C0.9 19.2251 0.961875 19.3661 1.07029 19.4654L1.07041 19.4655C1.11227 19.5037 1.15955 19.5343 1.21021 19.5566L1.16422 19.6H1.4157C1.43432 19.6 1.45262 19.5989 1.47055 19.597L1.47089 19.597L5.10333 19.2014L8.77407 14.6643ZM5.41709 16.1779L5.41714 16.1778C5.51346 16.055 5.65923 15.9823 5.81464 15.9801L5.81472 15.9801L6.64449 15.9695L6.5903 15.3692C6.5903 15.3692 6.5903 15.3692 6.5903 15.3692C6.57638 15.2151 6.63066 15.0625 6.73868 14.9525L6.73873 14.9524C6.8468 14.8426 6.99762 14.7868 7.15133 14.8009L7.1515 14.8009L7.73998 14.8559L7.75049 14.011C7.75049 14.011 7.75049 14.011 7.75049 14.011C7.75239 13.8546 7.82341 13.7072 7.94434 13.6092L7.94441 13.6092C8.06534 13.5114 8.22372 13.473 8.37586 13.5068L8.37568 13.5067L8.35425 13.6044L8.37594 13.5068L5.41709 16.1779ZM5.41709 16.1779C5.32108 16.3005 5.28433 16.4602 5.31682 16.6128C5.31682 16.6128 5.31683 16.6129 5.31683 16.6129L5.50124 17.4807L4.81185 18.1812L1.93188 18.495V16.6219L9.14989 9.2858C9.29922 9.13403 9.34161 8.90576 9.25824 8.70973C8.41975 6.73815 8.84354 4.48401 10.3373 2.96574C12.3324 0.938079 15.5777 0.938368 17.5722 2.96573C19.5675 4.99419 19.5677 8.29601 17.5722 10.3243L17.6413 10.3923L17.5722 10.3243C16.079 11.8424 13.8626 12.272 11.9251 11.4207L11.9251 11.4207C11.7304 11.3352 11.504 11.3796 11.3546 11.5311L11.3545 11.5312L9.22725 13.6935L5.41709 16.1779ZM13.558 7.04601L13.558 7.046C12.7266 6.20073 12.7254 4.82721 13.556 3.98275M13.558 7.04601L13.556 3.98275M13.558 7.04601C13.9745 7.46919 14.5218 7.68109 15.0688 7.68109M13.558 7.04601L15.0688 7.68109M13.556 3.98275C14.3873 3.1375 15.7417 3.13857 16.5742 3.98473C16.9764 4.39356 17.198 4.93764 17.1988 5.51575C17.1994 6.09446 16.9783 6.63904 16.576 7.04784M13.556 3.98275L16.576 7.04784M16.576 7.04784C16.1609 7.46977 15.6148 7.68109 15.0688 7.68109M16.576 7.04784L15.0688 7.68109M14.2888 6.30764L14.2887 6.30763C13.8579 5.8698 13.8573 5.15756 14.2868 4.72088C14.7153 4.28529 15.4131 4.28565 15.8434 4.72268C16.0515 4.93456 16.1665 5.21609 16.1669 5.51688C16.1672 5.81751 16.0529 6.09859 15.8453 6.30962L15.8453 6.30963C15.4167 6.74537 14.7188 6.74473 14.2888 6.30764Z" fill="#BFBFBF" stroke="#BFBFBF" stroke-width="0.2"/>
</svg>
