<svg width="20" height="22" viewBox="0 0 20 22" fill="none" xmlns="http://www.w3.org/2000/svg">
<path d="M10.9588 4.26743V4.34492L11.0338 4.36427L11.4311 4.46673C11.4311 4.46673 11.4311 4.46674 11.4311 4.46674C13.9388 5.11389 15.7233 7.39167 15.7233 10.0265V14.2739C15.7233 15.015 16.3197 15.6134 17.0579 15.6134C17.4885 15.6134 17.841 15.966 17.841 16.3984C17.841 16.8306 17.489 17.1833 17.0552 17.1833H2.94463C2.51012 17.1833 2.15881 16.8318 2.15881 16.3984C2.15881 15.9657 2.51017 15.6134 2.94192 15.6134C3.67847 15.6134 4.27657 15.0128 4.27657 14.2739V10.0265C4.27657 7.39091 6.06107 5.11389 8.56872 4.46674C8.56873 4.46673 8.56873 4.46673 8.56873 4.46673L8.96599 4.36427L9.04101 4.34491V4.26743V3.12446C9.04101 2.59346 9.47168 2.1622 9.99989 2.1622C10.5301 2.1622 10.9588 2.5915 10.9588 3.12446V4.26743ZM9.99993 21.1C11.5585 21.1 12.848 19.9466 13.067 18.4452H17.0554C18.1838 18.4452 19.1 17.5276 19.1 16.3982C19.1 15.2686 18.1837 14.3512 17.0581 14.3512C17.0161 14.3512 16.9823 14.3187 16.9823 14.2737V10.0263C16.9823 6.98032 15.0275 4.326 12.2178 3.38444V3.12419C12.2178 1.89464 11.2256 0.9 10 0.9C8.77603 0.9 7.78224 1.89661 7.78224 3.12419V3.38443C4.97223 4.3258 3.0177 6.97988 3.0177 10.0263V14.2737C3.0177 14.3167 2.98197 14.3512 2.94192 14.3512C1.81457 14.3512 0.9 15.2689 0.9 16.3982C0.9 17.5289 1.81542 18.4452 2.94463 18.4452H6.93284C7.15183 19.9466 8.4414 21.1 9.99993 21.1ZM9.99993 19.838C9.13949 19.838 8.41639 19.2458 8.21472 18.4452H11.7851C11.5835 19.2458 10.8604 19.838 9.99993 19.838Z" fill="#868686" stroke="#868686" stroke-width="0.2"/>
</svg>
