<svg width="17" height="14" viewBox="0 0 17 14" fill="none" xmlns="http://www.w3.org/2000/svg">
<path d="M11.7387 1.24341C11.7324 1.92725 11.1697 2.48676 10.4741 2.48054C9.77862 2.47432 9.20955 1.92103 9.21587 1.23719C9.2222 0.553343 9.79126 -0.00616546 10.4805 5.13106e-05C11.176 5.13106e-05 11.7387 0.559561 11.7387 1.24341Z" fill="#8E8E8E"/>
<path d="M16.8482 3.13939C16.4499 2.98397 16.0516 2.8099 15.6469 2.67313C13.6362 1.98307 11.6065 2.51149 10.07 3.94757C8.69796 2.76017 6.87695 2.17579 5.06226 2.41203C0.946021 2.95288 -1.32392 7.61546 0.825884 11.1155C2.53308 13.8944 6.2573 14.6777 9.13425 13.0676C9.13425 13.0676 9.1216 13.0427 9.24806 13.2354C9.58317 13.7514 10.0637 14.0001 10.7023 14.0001C10.9869 14.0001 11.2524 14.0001 11.5243 14.0001C11.8152 14.0001 11.8721 14.0001 11.8721 14.0001C11.8531 12.8686 11.8658 11.4077 11.8658 10.2762C11.8658 9.1883 11.8784 8.10037 11.8594 7.01243C11.8531 6.60213 11.9985 6.26642 12.2515 5.9618C12.8395 5.25931 13.7753 5.02307 14.6479 5.35256C15.0209 5.49554 15.394 5.63231 15.7607 5.79395C15.9314 5.86855 15.9946 5.89342 15.9946 5.89342C16.2918 5.14119 16.6839 3.94135 17 3.19534C17 3.19534 16.9937 3.19534 16.8482 3.13939ZM5.96645 11.1217C4.29719 11.1342 2.94407 9.84728 2.90614 8.19984C2.8682 6.58348 4.21499 5.22822 5.88425 5.20957C7.54718 5.19092 8.9003 6.49023 8.91927 8.13767C8.94456 9.75403 7.60409 11.1093 5.96645 11.1217Z" fill="#8E8E8E"/>
</svg>
