<svg width="20" height="20" viewBox="0 0 20 20" fill="none" xmlns="http://www.w3.org/2000/svg">
<circle cx="10" cy="10" r="10" fill="#F15179"/>
<path d="M13.9239 5.98064L13.9238 5.98056C13.683 5.73977 13.2926 5.73988 13.0518 5.98049L13.0517 5.98056L9.9522 9.08006L6.8527 5.98056C6.61191 5.73977 6.2215 5.73988 5.98064 5.98049L5.98056 5.98056C5.73977 6.22136 5.73988 6.61176 5.98049 6.85263L5.98056 6.8527L9.08006 9.95219L5.98056 13.0517C5.73977 13.2925 5.73988 13.6829 5.98049 13.9238L5.98063 13.9239C6.22152 14.1646 6.61173 14.1645 6.85263 13.9239L6.8527 13.9238L9.9522 10.8243L13.0517 13.9238L13.0518 13.9239C13.2926 14.1646 13.6829 14.1645 13.9238 13.9239L13.9238 13.9239C14.1649 13.683 14.1644 13.2925 13.9239 13.0518L13.9238 13.0517L10.8243 9.95219L13.9238 6.8527C14.1646 6.61191 14.1645 6.2215 13.9239 5.98064Z" fill="#373737" stroke="#373737" stroke-width="0.4"/>
</svg>
