<svg width="15" height="19" viewBox="0 0 15 19" fill="none" xmlns="http://www.w3.org/2000/svg">
<path fill-rule="evenodd" clip-rule="evenodd" d="M10.3286 0.578662C9.95416 0.20795 9.44851 0 8.92158 0H2C0.895433 0 0 0.895431 0 2V17C0 18.1046 0.895431 19 2 19H13C14.1046 19 15 18.1046 15 17V6.03743C15 5.50349 14.7865 4.99173 14.4071 4.61609L10.3286 0.578662ZM10.0669 5.37846C9.79079 5.37846 9.56693 5.1546 9.56693 4.87846V2.19238C9.56693 1.74815 10.103 1.52452 10.4187 1.83705L13.132 4.52313C13.4495 4.83737 13.227 5.37846 12.7803 5.37846H11.7815H10.0669Z" fill="#7F7DF3"/>
</svg>
