<svg width="19" height="14" viewBox="0 0 19 14" fill="none" xmlns="http://www.w3.org/2000/svg">
<path fill-rule="evenodd" clip-rule="evenodd" d="M10.3914 2.33334C10.7428 0.991538 11.9826 0 13.4583 0C14.9337 0 16.1735 0.991538 16.525 2.33334H18.2076C18.6451 2.33334 18.9998 2.67851 18.9998 3.11108C18.9998 3.54065 18.6456 3.88895 18.2076 3.88895H16.525C16.1736 5.23076 14.9337 6.2223 13.4583 6.2223C11.9827 6.2223 10.7428 5.23076 10.3914 3.88895H0.792147C0.354648 3.88895 0 3.54365 0 3.11108C0 2.68151 0.354241 2.33334 0.792147 2.33334H10.3914ZM2.47497 10.111C2.82643 8.76924 4.06625 7.7777 5.54174 7.7777C7.01733 7.7777 8.25715 8.76924 8.60865 10.111H18.2079C18.6454 10.111 19 10.4564 19 10.8889C19 11.3185 18.6458 11.6667 18.2079 11.6667H8.60865C8.25719 13.0085 7.01736 14 5.54174 14C4.06629 14 2.82646 13.0085 2.47497 11.6667H0.792351C0.354851 11.6667 0.000203714 11.3215 0.000203714 10.8889C0.000203714 10.4594 0.354444 10.111 0.792351 10.111H2.47497ZM5.54174 12.4444C6.41616 12.4444 7.12508 11.748 7.12508 10.8889C7.12508 10.0298 6.41616 9.33331 5.54174 9.33331C4.66732 9.33331 3.95853 10.0298 3.95853 10.8889C3.95853 11.748 4.66732 12.4444 5.54174 12.4444ZM13.4585 4.66669C14.3329 4.66669 15.0417 3.97019 15.0417 3.11108C15.0417 2.25198 14.3329 1.55561 13.4585 1.55561C12.584 1.55561 11.8751 2.25198 11.8751 3.11108C11.8751 3.97019 12.584 4.66669 13.4585 4.66669Z" fill="#868686"/>
</svg>
