<svg width="31" height="26" viewBox="0 0 31 26" fill="none" xmlns="http://www.w3.org/2000/svg">
<path d="M21.4072 2.30915C21.3957 3.57912 20.3695 4.61819 19.1012 4.60665C17.8329 4.5951 16.7952 3.56758 16.8067 2.2976C16.8183 1.02762 17.856 -0.01145 19.1128 9.52896e-05C20.3811 9.52896e-05 21.4072 1.03917 21.4072 2.30915Z" fill="#7E7CF2"/>
<path d="M30.7233 5.83055C29.9969 5.54192 29.2705 5.21865 28.5326 4.96466C24.866 3.68313 21.1648 4.66448 18.363 7.33143C15.861 5.12629 12.5403 4.04103 9.23119 4.47975C1.7251 5.48419 -2.41421 14.1431 1.50602 20.6431C4.61915 25.8038 11.4104 27.2585 16.6566 24.2683C16.6566 24.2683 16.6335 24.2221 16.8641 24.58C17.4752 25.5383 18.3515 26.0001 19.516 26.0001C20.0349 26.0001 20.5191 26.0001 21.0149 26.0001C21.5453 26.0001 21.6491 26.0001 21.6491 26.0001C21.6145 23.8989 21.6376 21.1857 21.6376 19.0845C21.6376 17.0641 21.6606 15.0437 21.626 13.0232C21.6145 12.2613 21.8797 11.6378 22.3409 11.0721C23.4132 9.76748 25.1197 9.32876 26.7108 9.94066C27.3911 10.2062 28.0714 10.4602 28.7401 10.7604C29.0514 10.8989 29.1667 10.9451 29.1667 10.9451C29.7086 9.54812 30.4235 7.31989 31 5.93446C31 5.93446 30.9885 5.93446 30.7233 5.83055ZM10.88 20.6546C7.83604 20.6777 5.3686 18.2879 5.29942 15.2284C5.23024 12.2266 7.68615 9.70975 10.7301 9.67512C13.7625 9.64048 16.23 12.0534 16.2645 15.1129C16.3107 18.1147 13.8663 20.6316 10.88 20.6546Z" fill="#7F7DF2"/>
</svg>
