<svg width="19" height="20" viewBox="0 0 19 20" fill="none" xmlns="http://www.w3.org/2000/svg">
<rect x="0.6" y="1.1" width="17.8" height="17.8" rx="3.4" stroke="#BFBFBF" stroke-width="1.2"/>
<path d="M15 5.52848C15 5.73292 14.8295 5.89866 14.6193 5.89866C14.409 5.89866 14.2385 6.06438 14.2385 6.2688V7.87294C14.2385 10.423 12.102 12.5 9.4789 12.5C6.8558 12.4999 4.74046 10.4434 4.74046 7.89314V6.27878C4.74046 6.08001 4.57469 5.91889 4.37023 5.91893C4.16577 5.91897 4 5.75785 4 5.55908V5.20943C4 4.81762 4.32672 4.5 4.72975 4.5H6.23163C6.6347 4.5 6.96145 4.81765 6.96145 5.2095V5.54884C6.96145 5.75327 6.79098 5.919 6.58068 5.919C6.37039 5.919 6.19992 6.08473 6.19992 6.28916V7.89329C6.19992 9.66185 7.68064 11.1013 9.49987 11.1013C11.3191 11.1013 12.7998 9.66185 12.7998 7.89329V6.28909C12.7998 6.0847 12.6294 5.919 12.4191 5.919C12.2089 5.919 12.0384 5.75331 12.0384 5.54891V5.2095C12.0384 4.81765 12.3652 4.5 12.7683 4.5H14.2806C14.6779 4.5 14.9999 4.81306 15 5.19926L15 5.52848Z" fill="#BFBFBF"/>
</svg>
