<svg width="19" height="19" viewBox="0 0 19 19" fill="none" xmlns="http://www.w3.org/2000/svg">
<path fill-rule="evenodd" clip-rule="evenodd" d="M10.9036 0C8.82889 0 6.75367 0.787682 5.17571 2.36549C2.24698 5.29394 2.03757 9.93495 4.54485 13.1097L0.279119 17.375C0.100464 17.5531 0 17.7951 0 18.0474C0 18.2998 0.100464 18.5417 0.279119 18.7201C0.45751 18.8993 0.699781 19 0.952659 19C1.20554 19 1.44781 18.8993 1.6262 18.7201L5.89193 14.4548C9.06745 16.9582 13.7078 16.7527 16.6351 13.8259C19.7908 10.6702 19.787 5.52089 16.6314 2.36582C15.0535 0.788008 12.9782 0.000325092 10.9036 0.000325092L10.9036 0ZM10.9054 1.88497C12.491 1.88364 14.0769 2.49033 15.2918 3.705C17.7214 6.13441 17.7214 10.0512 15.2918 12.4809C12.8622 14.9103 8.94868 14.9065 6.51918 12.4771C4.08954 10.0477 4.08954 6.1402 6.51918 3.71079C7.73396 2.49612 9.31986 1.88648 10.9056 1.88519L10.9054 1.88497Z" fill="#868686"/>
</svg>
