<svg width="20" height="20" viewBox="0 0 20 20" fill="none" xmlns="http://www.w3.org/2000/svg">
<path d="M16.0276 17.4356C14.4061 18.6878 12.4695 19.3651 10.4118 19.3987H10.2493C7.67253 19.3987 5.25082 18.3957 3.42582 16.5725C1.60283 14.748 0.6 12.327 0.6 9.7494C0.6 7.63043 1.28098 5.63623 2.56625 3.97346L2.56637 3.97331C3.18191 3.17644 3.91872 2.4817 4.75941 1.90846L4.75994 1.9081C5.54295 1.37295 6.40048 0.954777 7.30798 0.664043C6.69445 1.92535 6.40115 3.15525 6.40115 4.5007C6.40115 9.5179 10.4822 13.5999 15.5004 13.5999C16.8443 13.5999 18.0757 13.3073 19.3367 12.6928C19.0451 13.6007 18.627 14.4569 18.0925 15.2404C17.5184 16.0807 16.8234 16.8184 16.0276 17.4356Z" stroke="#BFBFBF" stroke-width="1.2"/>
</svg>
