<svg width="15" height="12" viewBox="0 0 15 12" fill="none" xmlns="http://www.w3.org/2000/svg">
<path d="M0.919624 5.22603C0.919624 5.22603 7.55377 2.5918 9.85459 1.66423C10.7366 1.29323 13.7277 0.105929 13.7277 0.105929C13.7277 0.105929 15.1082 -0.41347 14.9932 0.847979C14.9548 1.36743 14.6481 3.1854 14.3413 5.15183C13.8811 7.9345 13.3826 10.9769 13.3826 10.9769C13.3826 10.9769 13.3059 11.8302 12.654 11.9786C12.0021 12.127 10.9283 11.4592 10.7366 11.3108C10.5832 11.1995 7.86053 9.52988 6.8635 8.71363C6.59505 8.49103 6.28829 8.04583 6.90182 7.52638C8.28235 6.302 9.93128 4.78083 10.9283 3.81618C11.3885 3.37093 11.8487 2.33208 9.93128 3.59353C7.20863 5.41155 4.5243 7.11825 4.5243 7.11825C4.5243 7.11825 3.91072 7.48925 2.76031 7.15533C1.60984 6.82145 0.267674 6.3762 0.267674 6.3762C0.267674 6.3762 -0.652614 5.81968 0.919624 5.22603Z" fill="#8E8E8E"/>
</svg>
