<svg width="22" height="12" viewBox="0 0 22 12" fill="none" xmlns="http://www.w3.org/2000/svg">
<path d="M21.0435 9.35951C20.5645 8.81695 20.0202 8.33066 19.4938 7.86038C19.3066 7.69313 19.1131 7.52021 18.9265 7.34827C18.3909 6.85411 18.3714 6.66845 18.7955 6.10714C19.0889 5.72023 19.3999 5.33281 19.7008 4.95812C19.9736 4.61819 20.2558 4.26664 20.5263 3.91396L20.5818 3.84145C21.0987 3.16654 21.6333 2.46866 21.9178 1.62678C21.9917 1.40467 22.0692 1.07782 21.8919 0.804506C21.7146 0.531423 21.3708 0.44811 21.1275 0.409196C21.0072 0.389939 20.8877 0.387311 20.7768 0.387311L17.3917 0.385025L17.3637 0.384796C16.8519 0.384796 16.507 0.612394 16.3093 1.08068C16.1206 1.5281 15.9134 2.00455 15.6768 2.45758C15.2061 3.35968 14.6083 4.3987 13.7433 5.26526L13.7067 5.30212C13.6045 5.40572 13.4888 5.52303 13.4042 5.52303C13.3913 5.52303 13.3772 5.52069 13.3612 5.51595C13.182 5.45006 13.0617 5.04075 13.0672 4.85035C13.0672 4.84773 13.0673 4.8451 13.0673 4.84247L13.0649 1.1505C13.0649 1.1377 13.064 1.12502 13.0622 1.11233C12.9761 0.512166 12.7853 0.13857 12.0646 0.00537104C12.0455 0.00177108 12.0259 0 12.0064 0H8.48655C7.91308 0 7.5971 0.219941 7.30007 0.549138C7.2199 0.637137 7.05301 0.820335 7.13573 1.04256C7.21966 1.2681 7.4921 1.31633 7.58081 1.33199C8.02117 1.41107 8.26939 1.66524 8.3397 2.10935C8.46244 2.88054 8.47752 3.70368 8.38717 4.69984C8.36198 4.9767 8.31214 5.19052 8.23003 5.37321C8.21096 5.41583 8.14331 5.55498 8.07434 5.55503C8.05242 5.55503 7.98902 5.54692 7.87354 5.47183C7.60049 5.29532 7.40072 5.04344 7.16782 4.7323C6.37551 3.67568 5.71054 2.51169 5.13466 1.17302C4.92108 0.680222 4.52219 0.404339 4.01098 0.396225C3.44927 0.388168 2.93999 0.384282 2.45427 0.384282C1.92356 0.384282 1.43154 0.388911 0.951093 0.398339C0.539797 0.405196 0.255306 0.521538 0.105612 0.744393C-0.0443247 0.967419 -0.0345752 1.26039 0.134618 1.61501C1.48901 4.4563 2.71702 6.52217 4.11647 8.31369C5.09705 9.56728 6.0806 10.435 7.21142 11.0442C8.4028 11.6873 9.73793 12 11.293 12C11.4693 12 11.6516 11.9959 11.8353 11.9878C12.739 11.9463 13.0742 11.6377 13.1166 10.8074C13.1368 10.3832 13.1859 9.93819 13.407 9.55871C13.5465 9.31963 13.6765 9.31963 13.7193 9.31963C13.8017 9.31963 13.9038 9.3554 14.0134 9.42242C14.2101 9.54357 14.3788 9.70585 14.517 9.84762C14.6471 9.9823 14.7758 10.1184 14.9046 10.2545C15.1826 10.5482 15.47 10.852 15.7702 11.14C16.4274 11.7709 17.1513 12.0484 17.9828 11.9882H21.0864C21.093 11.9882 21.0997 11.9879 21.1063 11.9875C21.4155 11.9683 21.6834 11.8064 21.8411 11.5434C22.0365 11.2177 22.0326 10.8021 21.8306 10.4314C21.6014 10.0124 21.304 9.65431 21.0435 9.35951Z" fill="#8E8E8E"/>
</svg>
