<svg width="16" height="19" viewBox="0 0 16 19" fill="none" xmlns="http://www.w3.org/2000/svg">
<path d="M15.1497 1.83997H9.60386V1.66C9.60386 0.73993 8.88892 0 8 0C7.11108 0 6.39614 0.739965 6.39614 1.66V1.83997H0.850273C0.386472 1.83997 0 2.23994 0 2.72001C0 3.20008 0.386437 3.60005 0.850273 3.60005H15.1497C15.6135 3.60005 16 3.20008 16 2.72001C16 2.23994 15.6136 1.83997 15.1497 1.83997Z" fill="#F15179"/>
<path d="M14.5312 4.7998H1.46841C1.29453 4.7998 1.1592 4.95982 1.17861 5.13979L2.66656 17.4398C2.78249 18.3198 3.49741 18.9998 4.36707 18.9998H11.6327C12.5023 18.9998 13.2173 18.3398 13.3333 17.4398L14.8212 5.13979C14.8403 4.95982 14.7051 4.7998 14.5313 4.7998H14.5312Z" fill="#F15179"/>
</svg>
