<svg width="23" height="17" viewBox="0 0 23 17" fill="none" xmlns="http://www.w3.org/2000/svg">
<path d="M17.7014 9.6262L17.7012 14.42V14.42C17.7012 14.6593 17.602 14.8279 17.5187 14.8963C16.7952 15.3984 14.9294 16.3998 11.7712 16.3998C8.60161 16.3998 6.72711 15.3583 5.99679 14.8778L5.99683 14.8778L5.98869 14.8726L5.98867 14.8726C5.98778 14.8719 5.94812 14.8418 5.90653 14.7465C5.86672 14.6552 5.84121 14.5387 5.84121 14.42V9.62595L10.664 11.4106L10.676 11.415L10.6881 11.4189C11.0168 11.525 11.3616 11.6102 11.7496 11.6132L11.7509 11.6133H11.7714C12.168 11.6133 12.5194 11.5273 12.8546 11.4192L12.8667 11.4153L12.8786 11.4109L17.7014 9.6262Z" stroke="#A2A1E3" stroke-width="1.2"/>
<path d="M20.4567 10.5486L20.5457 10.5002L20.6522 10.555C20.8479 10.6558 21.084 10.9719 21.084 11.5098C21.084 11.8302 20.9903 12.1031 20.8654 12.2803C20.7402 12.4578 20.621 12.4974 20.5484 12.4974C20.4815 12.4974 20.3615 12.4598 20.2355 12.2861C20.1108 12.1144 20.0127 11.8442 20.0127 11.5098C20.0127 10.9885 20.2618 10.6546 20.4567 10.5486ZM20.3268 5.30709V5.32184L19.962 5.4566L12.0833 8.36721L12.0818 8.36779C11.8621 8.44964 11.6558 8.44965 11.4361 8.36779L11.4356 8.36763L1.11659 4.53183C1.11536 4.52261 1.11465 4.51259 1.11465 4.50215C1.11465 4.50077 1.11466 4.4994 1.11469 4.49806L11.4356 0.66155L11.4361 0.661391C11.6558 0.579538 11.862 0.579534 12.0818 0.661394L12.0822 0.66155L21.2962 4.0866L21.2387 4.11978L22.4 4.50141C22.3996 4.5097 22.3987 4.51758 22.3975 4.52483L20.7148 5.16052L20.3268 5.30709Z" stroke="#A2A1E3" stroke-width="1.2"/>
</svg>
