<svg width="10" height="10" viewBox="0 0 10 10" fill="none" xmlns="http://www.w3.org/2000/svg">
<path d="M9.8904 2.00007L7.99941 0.109073C7.92673 0.0363999 7.8358 0 7.74486 0C7.65393 0 7.56299 0.0363999 7.49032 0.109073L6.43576 1.16363C6.29029 1.3091 6.29029 1.52724 6.43576 1.67273L8.32663 3.56359C8.3993 3.63627 8.49024 3.67267 8.58117 3.67267C8.67211 3.67267 8.76304 3.63627 8.83571 3.56359L9.89027 2.50904C10.0359 2.36369 10.0359 2.12728 9.8904 2.00007Z" fill="#7F7DF3"/>
<path d="M5.90911 2.19992C5.76364 2.05445 5.52722 2.05445 5.40001 2.19992L0.272682 7.32726C0.218145 7.38179 0.181746 7.47273 0.163609 7.56366L0 9.60002C0 9.70909 0.0363999 9.81816 0.109073 9.89096C0.181746 9.96363 0.272682 10 0.363615 10H0.381751L2.41811 9.85456C2.50904 9.85456 2.58171 9.81816 2.65451 9.74549L7.80002 4.59997C7.8727 4.5273 7.9091 4.43636 7.9091 4.34543C7.9091 4.25449 7.8727 4.16356 7.80002 4.09089L5.90911 2.19992Z" fill="#7F7DF3"/>
</svg>
