<svg width="10" height="13" viewBox="0 0 10 13" fill="none" xmlns="http://www.w3.org/2000/svg">
<path d="M4.99973 6.2614C6.37506 6.2614 7.62522 6.81247 8.53143 7.69994C9.43763 8.58741 10 9.81208 10 11.1594V11.8924C10 12.1972 9.87284 12.4741 9.668 12.6748L9.64977 12.6914C9.4467 12.882 9.17108 13 8.86924 13H1.13029C0.819974 13 0.537565 12.8754 0.332805 12.6748C0.127176 12.4734 0 12.1964 0 11.8924V11.1594C0 9.8122 0.562573 8.58761 1.46857 7.69994C2.37458 6.81247 3.62427 6.2614 4.99973 6.2614ZM4.99973 1.23528e-05C5.75442 1.23528e-05 6.43825 0.299832 6.93261 0.784454L6.94828 0.801448C7.43328 1.28483 7.73306 1.94724 7.73306 2.67819C7.73306 3.41657 7.42697 4.08565 6.93223 4.57027C6.43787 5.05578 5.75404 5.3556 4.99935 5.3556C4.24555 5.3556 3.56212 5.05578 3.06736 4.57116C2.57171 4.08691 2.26563 3.41707 2.26563 2.67781C2.26563 1.93942 2.57171 1.26998 3.06645 0.785331C3.56248 0.29982 4.24592 1.23528e-05 4.99973 1.23528e-05Z" fill="white"/>
</svg>
