<svg width="21" height="21" viewBox="0 0 21 21" fill="none" xmlns="http://www.w3.org/2000/svg">
<path d="M11.4545 1.90909C11.4545 0.854729 12.3093 0 13.3636 0H19.0909C20.1453 0 21 0.854729 21 1.90909V7.63636C21 8.69073 20.1453 9.54545 19.0909 9.54545H13.3636C12.3093 9.54545 11.4545 8.69073 11.4545 7.63636V1.90909Z" fill="#7F7DF3"/>
<path d="M0 1.90909C0 0.854729 0.854729 0 1.90909 0H7.63636C8.69073 0 9.54545 0.854729 9.54545 1.90909V7.63636C9.54545 8.69073 8.69073 9.54545 7.63636 9.54545H1.90909C0.854729 9.54545 0 8.69073 0 7.63636V1.90909Z" fill="#7F7DF3"/>
<path d="M0 13.3636C0 12.3093 0.854729 11.4545 1.90909 11.4545H7.63636C8.69073 11.4545 9.54545 12.3093 9.54545 13.3636V19.0909C9.54545 20.1453 8.69073 21 7.63636 21H1.90909C0.854729 21 0 20.1453 0 19.0909V13.3636Z" fill="#7F7DF3"/>
<path d="M11.4545 13.3636C11.4545 12.3093 12.3093 11.4545 13.3636 11.4545H19.0909C20.1453 11.4545 21 12.3093 21 13.3636V19.0909C21 20.1453 20.1453 21 19.0909 21H13.3636C12.3093 21 11.4545 20.1453 11.4545 19.0909V13.3636Z" fill="#7F7DF3"/>
</svg>
