<svg width="21" height="21" viewBox="0 0 21 21" fill="none" xmlns="http://www.w3.org/2000/svg">
<path fill-rule="evenodd" clip-rule="evenodd" d="M17.5244 16.4652C16.4679 14.784 14.8518 13.5582 12.998 12.9688C13.9664 12.2173 14.6005 11.0565 14.6005 9.74009C14.6005 7.47972 12.7621 5.64032 10.5003 5.64032C8.23989 5.64032 6.40043 7.47972 6.40043 9.74009C6.40043 11.0565 7.0345 12.2188 8.00261 12.9688C6.14912 13.5582 4.53273 14.784 3.47653 16.4652C2.10785 14.8554 1.27587 12.7749 1.27587 10.5018C1.27587 5.41441 5.41421 1.27588 10.5002 1.27588C15.5862 1.27588 19.7245 5.41411 19.7245 10.5018C19.7245 12.7749 18.8928 14.8554 17.5241 16.4652M7.67592 9.74015C7.67592 8.1826 8.9426 6.91601 10.5001 6.91601C12.0577 6.91601 13.3246 8.18266 13.3246 9.74015C13.3246 11.2976 12.0577 12.5645 10.5001 12.5645C8.94254 12.5645 7.67592 11.2977 7.67592 9.74015ZM10.5001 19.7247C8.14786 19.7247 6.00613 18.833 4.3757 17.379C4.39112 17.3586 4.41651 17.3484 4.43051 17.3239C5.68838 15.1758 8.01266 13.8403 10.5002 13.8403C12.9865 13.8403 15.3122 15.1757 16.5686 17.3227C16.5826 17.3469 16.6042 17.3609 16.6208 17.3827C14.9906 18.8344 12.85 19.7247 10.5 19.7247M10.5 0.000976562C4.71106 0.000976562 0 4.71202 0 10.5025C0 16.2913 4.71118 21.001 10.5 21.001C16.2892 21.001 21 16.2914 21 10.5025C21 4.71232 16.2891 0.000976562 10.5 0.000976562Z" fill="#BFBFBF"/>
</svg>
