<svg width="20" height="20" viewBox="0 0 20 20" fill="none" xmlns="http://www.w3.org/2000/svg">
<g clip-path="url(#clip0_197_3091)">
<path d="M19.9895 10.1868C19.9895 9.36743 19.9214 8.76949 19.7742 8.14941H10.1992V11.8477H15.8195C15.7062 12.7668 15.0943 14.1509 13.7346 15.081L13.7155 15.2048L16.7429 17.4967L16.9527 17.5171C18.879 15.7786 19.9895 13.2208 19.9895 10.1868Z" fill="#4285F4"/>
<path d="M10.1993 19.9312C12.9527 19.9312 15.2643 19.0453 16.9527 17.5173L13.7346 15.0812C12.8734 15.6681 11.7176 16.0778 10.1993 16.0778C7.50243 16.0778 5.21352 14.3394 4.39759 11.9365L4.27799 11.9464L1.13003 14.3271L1.08887 14.439C2.76588 17.6944 6.21061 19.9312 10.1993 19.9312Z" fill="#34A853"/>
<path d="M4.39748 11.9363C4.18219 11.3163 4.05759 10.6518 4.05759 9.96534C4.05759 9.27878 4.18219 8.61443 4.38615 7.99435L4.38045 7.86229L1.19304 5.44336L1.08875 5.49183C0.397576 6.84275 0.000976562 8.35977 0.000976562 9.96534C0.000976562 11.5709 0.397576 13.0879 1.08875 14.4388L4.39748 11.9363Z" fill="#FBBC05"/>
<path d="M10.1993 3.85336C12.1142 3.85336 13.406 4.66168 14.1425 5.33717L17.0207 2.59107C15.253 0.985496 12.9527 0 10.1993 0C6.2106 0 2.76588 2.23672 1.08887 5.49214L4.38626 7.99466C5.21352 5.59183 7.50242 3.85336 10.1993 3.85336Z" fill="#EB4335"/>
</g>
<defs>
<clipPath id="clip0_197_3091">
<rect width="20" height="20" fill="white"/>
</clipPath>
</defs>
</svg>
