<svg width="31" height="46" viewBox="0 0 31 46" fill="none" xmlns="http://www.w3.org/2000/svg">
<path d="M5.23163 10.12C5.23163 4.52333 9.82128 0 15.5 0C21.1787 0 25.7684 4.52333 25.7684 10.12C25.7684 15.7167 21.1787 20.24 15.5 20.24C9.82128 20.24 5.23163 15.64 5.23163 10.12ZM13.7108 23.3067C13.3997 23.3067 13.1663 23.6133 13.2441 23.8433L14.0998 26.9867H16.978L17.8337 23.8433C17.9115 23.5367 17.6781 23.3067 17.367 23.3067H13.7108ZM14.0998 27.9833L12.2233 42.5562C12.1806 42.8876 12.3063 43.2185 12.5583 43.438L14.8507 45.4345C15.2239 45.7596 15.7788 45.7627 16.1557 45.4419L18.5099 43.4381C18.7674 43.2189 18.8967 42.8843 18.8535 42.5489L16.978 27.9833H14.0998ZM7.56535 23.3067C3.13128 23.3067 -0.291514 26.9867 0.0196493 31.3567L1.03986 45.0742C1.07869 45.5962 1.5136 46 2.03711 46H10.2614C10.8569 46 11.3204 45.4829 11.2554 44.891L8.98552 24.1976C8.9299 23.6906 8.50157 23.3067 7.99148 23.3067H7.56535ZM23.4347 23.3067H23.0085C22.4984 23.3067 22.0701 23.6906 22.0145 24.1976L19.7446 44.891C19.6796 45.4829 20.1431 46 20.7386 46H28.9629C29.4864 46 29.9213 45.5962 29.9601 45.0742L30.9804 31.3567C31.2915 26.9867 27.8687 23.3067 23.4347 23.3067Z" fill="#BFBFBF"/>
</svg>
