<svg width="30" height="30" viewBox="0 0 30 30" fill="none" xmlns="http://www.w3.org/2000/svg">
<circle cx="15" cy="15" r="14.5" fill="white" stroke="#FF7557"/>
<path d="M12.7277 15.2085L12.9173 15.0203L12.816 14.7731C12.2156 13.3069 12.6795 11.7409 13.7142 10.6684C14.739 9.60601 16.2781 9.07573 17.7982 9.61219L16.5949 10.7919C15.8446 11.5276 15.8439 12.7358 16.5934 13.4724C17.3302 14.1965 18.5135 14.1895 19.2417 13.4568L20.4256 12.2656C20.6313 12.9295 20.6557 13.6365 20.4953 14.314C20.325 15.0329 19.9535 15.6897 19.4231 16.2084L19.4231 16.2084L19.4214 16.2102C18.8921 16.7342 18.2252 17.1008 17.4962 17.2679C16.7672 17.435 16.0056 17.3958 15.298 17.1548L15.0635 17.075L14.8876 17.2493L11.8762 20.2327C11.593 20.4791 11.2257 20.6104 10.8482 20.5994C10.4669 20.5882 10.1049 20.4328 9.83607 20.1658C9.56726 19.8988 9.4118 19.5405 9.40064 19.1642C9.3896 18.7917 9.52086 18.4285 9.76854 18.1475L12.7277 15.2085Z" fill="#FFD6CD" stroke="#FF7557" stroke-width="0.8"/>
</svg>
