<svg width="30" height="30" viewBox="0 0 30 30" fill="none" xmlns="http://www.w3.org/2000/svg">
<circle cx="15" cy="15" r="14.5" fill="white" stroke="#32AA8D"/>
<path d="M19.0938 13.915C20.2356 13.915 21.1613 13.0386 21.1613 11.9575C21.1613 10.8764 20.2356 10 19.0938 10C17.952 10 17.0264 10.8764 17.0264 11.9575C17.0264 13.0386 17.952 13.915 19.0938 13.915Z" fill="#98D5C6"/>
<path d="M19.0933 15.0586C16.9379 15.0586 15.1564 16.7301 15.0024 18.8636C14.9804 19.0175 15.1124 19.1495 15.2883 19.1495H22.9203C23.0742 19.1495 23.2062 19.0175 23.2062 18.8636C23.0303 16.7521 21.2487 15.0586 19.0933 15.0586Z" fill="#98D5C6"/>
<path d="M11.0938 13.915C12.2356 13.915 13.1613 13.0386 13.1613 11.9575C13.1613 10.8764 12.2356 10 11.0938 10C9.952 10 9.02637 10.8764 9.02637 11.9575C9.02637 13.0386 9.952 13.915 11.0938 13.915Z" fill="#98D5C6"/>
<path d="M11.0933 15.0586C8.93788 15.0586 7.15636 16.7301 7.0024 18.8636C6.9804 19.0175 7.11237 19.1495 7.28832 19.1495H14.9203C15.0742 19.1495 15.2062 19.0175 15.2062 18.8636C15.0303 16.7521 13.2487 15.0586 11.0933 15.0586Z" fill="#98D5C6"/>
<path d="M14.9881 14.2707C16.6296 14.2707 18.0075 13.0043 18.0075 11.3854C18.0075 9.76642 16.6296 8.5 14.9881 8.5C13.3467 8.5 11.9688 9.76642 11.9688 11.3854C11.9688 13.0043 13.3467 14.2707 14.9881 14.2707Z" fill="#32AA8D" stroke="white"/>
<path d="M20.5 19.801V19.7802L20.4983 19.7595C20.2628 16.9336 17.8809 14.6643 14.9881 14.6643C12.1031 14.6643 9.71861 16.8973 9.50527 19.7507C9.43993 20.2971 9.91244 20.6494 10.3513 20.6494H19.6516C20.1153 20.6494 20.5 20.2648 20.5 19.801Z" fill="#32AA8D" stroke="white"/>
</svg>
