<svg width="24" height="22" viewBox="0 0 24 22" fill="none" xmlns="http://www.w3.org/2000/svg">
<path d="M12.642 2.06291C12.7893 1.76753 13.2107 1.76752 13.358 2.06291L15.483 6.32546C15.7159 6.7927 16.1621 7.11691 16.6785 7.19405L21.3891 7.89783C21.7155 7.9466 21.8457 8.34742 21.6103 8.57875L18.213 11.9169C17.8406 12.2828 17.6702 12.8074 17.7564 13.3223L18.5427 18.0198C18.5972 18.3454 18.2562 18.5931 17.9635 18.4407L13.7389 16.2412C13.2758 16.0001 12.7242 16.0001 12.2611 16.2412L8.03652 18.4407C7.74377 18.5931 7.40281 18.3454 7.4573 18.0198L8.24362 13.3223C8.32981 12.8074 8.15936 12.2828 7.78697 11.9169L4.3897 8.57875C4.15428 8.34742 4.28451 7.9466 4.61094 7.89783L9.32153 7.19405C9.83788 7.11691 10.2841 6.7927 10.517 6.32546L12.642 2.06291Z" stroke="#868686" stroke-width="1.2"/>
<circle cx="19.5" cy="3.5" r="1.5" fill="#868686"/>
<circle cx="6.5" cy="1.5" r="1.5" fill="#868686"/>
<circle cx="1.5" cy="16.5" r="1.5" fill="#868686"/>
</svg>
