<svg width="21" height="26" viewBox="0 0 21 26" fill="none" xmlns="http://www.w3.org/2000/svg">
<path d="M6.88672 3.50713H6.83672V3.55713V5.33261V5.38261H6.88672H8.66219H8.71219V5.33261V3.55713V3.50713H8.66219H6.88672Z" fill="#868686" stroke="#868686" stroke-width="0.1"/>
<path d="M5.11084 5.28203H5.06084V5.33203V7.10751V7.15751H5.11084H6.88632H6.93632V7.10751V5.33203V5.28203H6.88632H5.11084Z" fill="#868686" stroke="#868686" stroke-width="0.1"/>
<path d="M6.88672 7.05742H6.83672V7.10742V8.8829V8.9329H6.88672H8.66219H8.71219V8.8829V7.10742V7.05742H8.66219H6.88672Z" fill="#868686" stroke="#868686" stroke-width="0.1"/>
<path d="M5.11084 8.8333H5.06084V8.8833V10.6588V10.7088H5.11084H6.88632H6.93632V10.6588V8.8833V8.8333H6.88632H5.11084Z" fill="#868686" stroke="#868686" stroke-width="0.1"/>
<path d="M6.88672 10.6087H6.83672V10.6587V12.4342V12.4842H6.88672H8.66219H8.71219V12.4342V10.6587V10.6087H8.66219H6.88672Z" fill="#868686" stroke="#868686" stroke-width="0.1"/>
<path d="M5.11084 12.3836H5.06084V12.4336V14.2091V14.2591H5.11084H6.88632H6.93632V14.2091V12.4336V12.3836H6.88632H5.11084Z" fill="#868686" stroke="#868686" stroke-width="0.1"/>
<path d="M6.88672 14.1595H6.83672V14.2095V15.985V16.035H6.88672H8.66219H8.71219V15.985V14.2095V14.1595H8.66219H6.88672Z" fill="#868686" stroke="#868686" stroke-width="0.1"/>
<path d="M6.88599 16.346C6.85526 16.346 6.82393 16.357 6.79441 16.3724C6.76424 16.3881 6.732 16.4104 6.69842 16.4376C6.63122 16.4921 6.55449 16.5698 6.47268 16.6644C6.30884 16.854 6.12069 17.1161 5.9427 17.409C5.76467 17.7019 5.59601 18.0269 5.47172 18.3425C5.34774 18.6573 5.26641 18.9665 5.26641 19.2265C5.26641 20.1027 5.98304 20.8461 6.88599 20.8461C7.76219 20.8461 8.50557 20.1294 8.50557 19.2265C8.50557 18.9727 8.42416 18.6667 8.30024 18.3532C8.17596 18.0389 8.00734 17.7131 7.82934 17.4186C7.65139 17.1242 7.46328 16.8597 7.29948 16.6682C7.21769 16.5726 7.14097 16.494 7.0738 16.4389C7.04023 16.4113 7.00799 16.3887 6.97781 16.3728C6.9483 16.3573 6.91688 16.346 6.88599 16.346ZM7.50495 19.2263C7.50495 19.5589 7.21862 19.8453 6.88599 19.8453C6.55338 19.8453 6.26703 19.5589 6.26703 19.2263C6.26703 18.8937 6.55336 18.6073 6.88599 18.6073C7.24302 18.6073 7.50495 18.8924 7.50495 19.2263Z" fill="#868686" stroke="#868686" stroke-width="0.1"/>
<path d="M19.7504 6.9586V6.95827L19.7358 6.94362L14.1007 1.30856C13.7315 0.93932 13.23 0.727832 12.7273 0.727832H2.61507C2.08637 0.727832 1.61064 0.939601 1.24166 1.30856L1.24166 1.30856C0.872694 1.67752 0.660937 2.15308 0.660937 2.68196V23.3181C0.660937 24.4008 1.53244 25.2723 2.61507 25.2723H18.3624C19.445 25.2723 20.3165 24.4008 20.3165 23.3181V8.31703C20.3165 7.82119 20.1106 7.32638 19.7504 6.9586ZM2.61505 1.93426H5.06094V3.55667V3.60667H5.11094H6.88642H6.93642V3.55667V1.93407H12.42V6.59283C12.42 7.70114 13.3172 8.59833 14.4255 8.59833H19.0843V23.3179H19.0842L19.0844 23.3208C19.1082 23.7278 18.7727 24.0657 18.3623 24.0657H2.61504C2.20525 24.0657 1.86743 23.7278 1.86743 23.3181V2.68187C1.86743 2.48836 1.93996 2.2955 2.08432 2.15115L2.08432 2.15115C2.22869 2.00678 2.42155 1.93426 2.61505 1.93426ZM18.4986 7.39204H14.4512C14.0157 7.39204 13.6521 7.02853 13.6521 6.59292L13.6522 2.57052L18.4986 7.39204Z" fill="#868686" stroke="#868686" stroke-width="0.1"/>
</svg>
